<?xml version="1.0" encoding="UTF-8"?>
<svg xmlns="http://www.w3.org/2000/svg" xmlns:xlink="http://www.w3.org/1999/xlink" width="36px" height="36px" viewBox="0 0 36 36" version="1.1">
<g id="surface1">
<path style=" stroke:none;fill-rule:nonzero;fill:rgb(0%,84.705883%,100%);fill-opacity:1;" d="M 29.542969 11.65625 C 29.160156 11.507812 28.773438 11.371094 28.386719 11.246094 C 28.449219 10.945312 28.511719 10.648438 28.5625 10.359375 C 29.4375 5.578125 28.867188 1.726562 26.910156 0.457031 C 25.039062 -0.757812 21.972656 0.507812 18.875 3.539062 C 18.570312 3.839844 18.273438 4.148438 17.980469 4.464844 C 17.785156 4.253906 17.589844 4.046875 17.386719 3.84375 C 14.140625 0.605469 10.890625 -0.761719 8.9375 0.511719 C 7.0625 1.730469 6.507812 5.351562 7.296875 9.882812 C 7.375 10.332031 7.464844 10.777344 7.5625 11.222656 C 7.101562 11.367188 6.660156 11.523438 6.234375 11.691406 C 2.429688 13.183594 0 15.523438 0 17.949219 C 0 20.453125 2.609375 22.964844 6.570312 24.488281 C 6.890625 24.613281 7.214844 24.726562 7.542969 24.832031 C 7.4375 25.308594 7.339844 25.789062 7.257812 26.273438 C 6.507812 30.726562 7.09375 34.261719 8.960938 35.472656 C 10.890625 36.726562 14.128906 35.4375 17.28125 32.339844 C 17.539062 32.085938 17.789062 31.828125 18.03125 31.5625 C 18.347656 31.902344 18.671875 32.234375 19.003906 32.558594 C 22.054688 35.515625 25.070312 36.707031 26.9375 35.492188 C 28.863281 34.238281 29.492188 30.4375 28.679688 25.820312 C 28.613281 25.457031 28.542969 25.097656 28.460938 24.738281 C 28.691406 24.664062 28.914062 24.585938 29.132812 24.503906 C 33.25 22.96875 35.929688 20.484375 35.929688 17.949219 C 35.929688 15.511719 33.421875 13.160156 29.542969 11.65625 Z M 28.648438 22.863281 C 28.453125 22.9375 28.25 23.007812 28.042969 23.078125 C 27.589844 21.457031 26.976562 19.734375 26.226562 17.957031 C 26.941406 16.21875 27.53125 14.519531 27.972656 12.910156 C 28.339844 13.03125 28.699219 13.15625 29.042969 13.289062 C 32.367188 14.578125 34.394531 16.480469 34.394531 17.949219 C 34.394531 19.511719 32.203125 21.539062 28.648438 22.863281 Z M 27.171875 26.152344 C 27.53125 28.195312 27.582031 30.042969 27.34375 31.488281 C 27.132812 32.785156 26.699219 33.652344 26.167969 34 C 25.035156 34.734375 22.613281 33.777344 20.003906 31.25 C 19.695312 30.949219 19.394531 30.640625 19.101562 30.320312 C 20.113281 29.078125 21.125 27.628906 22.113281 26.019531 C 23.847656 25.847656 25.488281 25.5625 26.976562 25.175781 C 27.050781 25.5 27.113281 25.828125 27.171875 26.152344 Z M 12.25 33.871094 C 11.144531 34.308594 10.261719 34.324219 9.730469 33.976562 C 8.597656 33.242188 8.125 30.402344 8.765625 26.59375 C 8.84375 26.144531 8.929688 25.699219 9.03125 25.253906 C 10.5 25.621094 12.128906 25.882812 13.871094 26.042969 C 14.867188 27.617188 15.90625 29.0625 16.957031 30.328125 C 16.734375 30.570312 16.503906 30.808594 16.273438 31.039062 C 14.878906 32.410156 13.480469 33.382812 12.25 33.871094 Z M 7.066406 22.855469 C 5.316406 22.179688 3.867188 21.304688 2.875 20.351562 C 1.984375 19.492188 1.535156 18.640625 1.535156 17.949219 C 1.535156 16.476562 3.484375 14.597656 6.738281 13.324219 C 7.132812 13.167969 7.546875 13.023438 7.976562 12.882812 C 8.425781 14.53125 9.015625 16.25 9.726562 17.988281 C 9.003906 19.753906 8.40625 21.503906 7.953125 23.167969 C 7.65625 23.070312 7.359375 22.96875 7.066406 22.855469 Z M 8.804688 9.550781 C 8.128906 5.667969 8.578125 2.738281 9.707031 2.003906 C 10.90625 1.222656 13.566406 2.339844 16.367188 5.136719 C 16.550781 5.320312 16.730469 5.507812 16.90625 5.695312 C 15.863281 6.957031 14.832031 8.394531 13.84375 9.957031 C 12.15625 10.132812 10.539062 10.417969 9.050781 10.796875 C 8.960938 10.382812 8.878906 9.96875 8.804688 9.550781 Z M 24.300781 13.855469 C 23.953125 13.171875 23.585938 12.5 23.210938 11.835938 C 24.355469 11.996094 25.453125 12.214844 26.484375 12.480469 C 26.175781 13.59375 25.789062 14.761719 25.335938 15.960938 C 25.003906 15.25 24.660156 14.550781 24.300781 13.855469 Z M 17.980469 6.929688 C 18.691406 7.792969 19.398438 8.757812 20.097656 9.800781 C 18.683594 9.726562 17.265625 9.726562 15.851562 9.800781 C 16.546875 8.765625 17.261719 7.804688 17.980469 6.929688 Z M 11.621094 13.867188 C 11.269531 14.554688 10.929688 15.253906 10.605469 15.957031 C 10.160156 14.765625 9.777344 13.59375 9.464844 12.460938 C 10.492188 12.203125 11.582031 11.992188 12.722656 11.832031 C 12.339844 12.5 11.972656 13.179688 11.621094 13.867188 Z M 12.753906 24.1875 C 11.578125 24.039062 10.46875 23.839844 9.445312 23.585938 C 9.761719 22.433594 10.152344 21.238281 10.609375 20.019531 C 10.933594 20.726562 11.273438 21.421875 11.628906 22.109375 C 11.992188 22.816406 12.367188 23.511719 12.753906 24.1875 Z M 18.023438 29.085938 C 17.296875 28.203125 16.570312 27.226562 15.863281 26.175781 C 16.550781 26.207031 17.253906 26.222656 17.964844 26.222656 C 18.699219 26.222656 19.421875 26.203125 20.132812 26.167969 C 19.433594 27.238281 18.726562 28.214844 18.023438 29.085938 Z M 25.351562 19.957031 C 25.832031 21.1875 26.234375 22.378906 26.558594 23.511719 C 25.515625 23.78125 24.390625 23.996094 23.207031 24.15625 C 23.585938 23.476562 23.953125 22.792969 24.308594 22.097656 C 24.671875 21.394531 25.015625 20.679688 25.351562 19.957031 Z M 22.980469 21.234375 C 22.433594 22.300781 21.859375 23.34375 21.253906 24.363281 C 20.160156 24.453125 19.0625 24.496094 17.964844 24.496094 C 16.847656 24.496094 15.757812 24.457031 14.710938 24.378906 C 14.089844 23.359375 13.503906 22.316406 12.957031 21.246094 C 12.410156 20.183594 11.898438 19.097656 11.421875 17.988281 C 11.894531 16.882812 12.40625 15.792969 12.953125 14.730469 L 12.949219 14.730469 C 13.496094 13.664062 14.078125 12.625 14.691406 11.609375 C 15.761719 11.519531 16.859375 11.472656 17.964844 11.472656 C 19.078125 11.472656 20.175781 11.519531 21.242188 11.613281 C 21.851562 12.625 22.429688 13.660156 22.972656 14.722656 C 23.519531 15.78125 24.039062 16.863281 24.523438 17.964844 C 24.042969 19.074219 23.527344 20.167969 22.980469 21.234375 Z M 26.144531 1.953125 C 27.347656 2.734375 27.816406 5.882812 27.058594 10.011719 C 27.011719 10.273438 26.957031 10.542969 26.898438 10.8125 C 25.410156 10.425781 23.789062 10.140625 22.09375 9.960938 C 21.109375 8.378906 20.085938 6.941406 19.058594 5.695312 C 19.328125 5.402344 19.601562 5.121094 19.882812 4.84375 C 22.535156 2.246094 25.015625 1.21875 26.144531 1.953125 Z M 17.964844 14.339844 C 19.738281 14.339844 21.171875 15.953125 21.171875 17.949219 C 21.171875 19.941406 19.738281 21.558594 17.964844 21.558594 C 16.191406 21.558594 14.757812 19.941406 14.757812 17.949219 C 14.757812 15.953125 16.191406 14.339844 17.964844 14.339844 Z M 17.964844 14.339844 "/>
</g>
</svg>
